<?xml version="1.0" standalone="no"?>
<!DOCTYPE svg PUBLIC "-//W3C//DTD SVG 20010904//EN"
 "http://www.w3.org/TR/2001/REC-SVG-20010904/DTD/svg10.dtd">
<svg version="1.0" xmlns="http://www.w3.org/2000/svg"
 width="151.000000pt" height="151.000000pt" viewBox="0 0 151.000000 151.000000"
 preserveAspectRatio="xMidYMid meet">
<metadata>
Created by potrace 1.14, written by Peter Selinger 2001-2017
</metadata>
<g transform="translate(0.000000,151.000000) scale(0.100000,-0.100000)"
fill="#000000" stroke="none">
<path d="M722 1476 c-37 -42 -44 -64 -46 -148 0 -39 -6 -63 -13 -66 -12 -3
-16 3 -29 47 -3 10 -12 4 -26 -20 -12 -19 -22 -36 -23 -39 0 -3 -6 -15 -13
-27 -7 -13 -10 -23 -6 -23 3 0 2 -6 -2 -12 -17 -24 -8 -106 17 -154 35 -68 87
-94 178 -89 110 5 159 54 166 165 5 73 -9 117 -68 207 -45 70 -78 130 -94 172
l-9 23 -32 -36z"/>
<path d="M619 1476 c-2 -3 -16 -7 -29 -10 -54 -11 -67 -15 -120 -36 -167 -65
-327 -220 -394 -380 -10 -25 -22 -54 -27 -65 -21 -49 -39 -163 -39 -243 1
-249 127 -481 336 -618 41 -27 78 -49 82 -50 4 0 24 -8 44 -18 260 -115 604
-43 809 171 68 71 149 196 166 258 46 168 55 296 29 408 -7 31 -11 57 -8 57 2
0 0 6 -5 13 -5 6 -18 35 -28 62 -50 138 -184 289 -325 367 -90 49 -269 103
-286 85 -7 -7 20 -58 66 -127 20 -30 44 -68 53 -85 8 -16 32 -39 54 -50 49
-26 49 -26 107 -77 143 -126 208 -320 169 -508 -35 -172 -146 -312 -305 -385
-31 -14 -67 -28 -80 -31 -13 -3 -34 -7 -48 -11 -104 -22 -241 0 -352 59 -217
116 -328 367 -267 606 37 145 123 260 250 334 44 26 62 44 84 86 16 30 39 60
51 69 14 9 25 29 29 54 4 21 11 41 16 45 15 9 10 24 -9 24 -10 0 -21 -2 -23
-4z"/>
<path d="M265 878 c-9 -23 -20 -133 -17 -160 3 -27 3 -27 95 -30 l92 -3 0
-167 c0 -91 2 -168 5 -171 55 -44 178 -97 188 -80 4 6 7 103 6 215 l0 203 35
5 c20 3 67 3 105 0 l70 -5 -1 -213 0 -214 35 7 c42 8 144 57 158 77 6 7 10 84
9 181 l0 167 99 0 99 0 -6 83 c-3 45 -8 90 -12 100 -7 16 -39 17 -481 17 -371
0 -476 -3 -479 -12z"/>
</g>
</svg>
